<svg xmlns="http://www.w3.org/2000/svg" width="1200" height="630" viewBox="0 0 1200 630">
  <defs>
    <linearGradient id="bg" x1="0" y1="0" x2="1" y2="1">
      <stop offset="0" stop-color="#0c1428"/>
      <stop offset="1" stop-color="#080c18"/>
    </linearGradient>
    <linearGradient id="g" x1="0" y1="0" x2="1" y2="1">
      <stop offset="0" stop-color="#3f88ff"/>
      <stop offset="1" stop-color="#0b49d6"/>
    </linearGradient>
    <linearGradient id="fade" x1="0" y1="0" x2="0" y2="1">
      <stop offset="0" stop-color="#2f7bff" stop-opacity="0.30"/>
      <stop offset="1" stop-color="#2f7bff" stop-opacity="0"/>
    </linearGradient>
  </defs>
  <rect width="1200" height="630" fill="url(#bg)"/>
  <path d="M0 486 L150 446 L300 466 L450 396 L600 426 L750 336 L900 366 L1050 262 L1200 312 L1200 630 L0 630 Z" fill="url(#fade)"/>
  <path d="M0 486 L150 446 L300 466 L450 396 L600 426 L750 336 L900 366 L1050 262 L1200 312" fill="none" stroke="#2f7bff" stroke-width="3" opacity="0.55"/>
  <g transform="translate(238,214)">
    <rect width="150" height="150" rx="34" fill="url(#g)"/>
    <circle cx="39" cy="108" r="9.5" fill="#ffffff"/>
    <path d="M39 108 L66 84 L88 94 L120 51" fill="none" stroke="#ffffff" stroke-width="10.5" stroke-linecap="round" stroke-linejoin="round"/>
    <path d="M102 51 L120 51 L120 69" fill="none" stroke="#ffffff" stroke-width="10.5" stroke-linecap="round" stroke-linejoin="round"/>
    <text x="190" y="103" font-family="'Segoe UI',Roboto,'Helvetica Neue',Arial,sans-serif" font-size="92" font-weight="700" letter-spacing="-2.5">
      <tspan fill="#ffffff">Money</tspan><tspan fill="#6ea8ff">Puran</tspan>
    </text>
  </g>
  <text x="600" y="474" text-anchor="middle" font-family="'Segoe UI',Roboto,'Helvetica Neue',Arial,sans-serif" font-size="29" font-weight="500" fill="#9fb3d1" letter-spacing="1.5">Global markets, business &amp; investing &#8212; every session</text>
</svg>
